<?xml version="1.0" encoding="utf-8"?>
<!-- Generator: Adobe Illustrator 26.0.2, SVG Export Plug-In . SVG Version: 6.00 Build 0)  -->
<svg version="1.1" id="Ebene_1" xmlns="http://www.w3.org/2000/svg" xmlns:xlink="http://www.w3.org/1999/xlink" x="0px" y="0px"
	 viewBox="0 0 64 64" style="enable-background:new 0 0 64 64;" xml:space="preserve">
<style type="text/css">
	.st0{fill:#2C5B9C;}
	.st1{clip-path:url(#SVGID_00000170277137895295884040000003385417188059144598_);}
	.st2{clip-path:url(#SVGID_00000155140772806775338150000005940872127050556064_);}
	.st3{clip-path:url(#SVGID_00000149341738487871932690000001316867799672454037_);}
	
		.st4{clip-path:url(#SVGID_00000038396735503960013720000014080861571495199634_);fill-rule:evenodd;clip-rule:evenodd;fill:#1D1D1B;}
	
		.st5{clip-path:url(#SVGID_00000038396735503960013720000014080861571495199634_);fill-rule:evenodd;clip-rule:evenodd;fill:#FFFFFF;}
	
		.st6{clip-path:url(#SVGID_00000090281931873093463060000017762010726439937467_);fill-rule:evenodd;clip-rule:evenodd;fill:#FF0000;}
	
		.st7{clip-path:url(#SVGID_00000085973221383839702860000002333871303600326026_);fill-rule:evenodd;clip-rule:evenodd;fill:#1D1D1B;}
	
		.st8{clip-path:url(#SVGID_00000008144119115814259860000011438779070953027218_);fill-rule:evenodd;clip-rule:evenodd;fill:#FFFFFF;}
	.st9{clip-path:url(#SVGID_00000113324596377211097230000003320283535369911203_);fill:#1D1D1B;}
</style>
<path class="st0" d="M36.6,27.7"/>
<path class="st0" d="M36.6,27.7"/>
<g>
	<defs>
		<rect id="SVGID_1_" x="0" y="-6" width="73.2" height="67.5"/>
	</defs>
	<clipPath id="SVGID_00000055682172899728597620000010166658257097482632_">
		<use xlink:href="#SVGID_1_"  style="overflow:visible;"/>
	</clipPath>
	<g style="clip-path:url(#SVGID_00000055682172899728597620000010166658257097482632_);">
		<defs>
			<rect id="SVGID_00000128481278556347950900000007474359396960096915_" x="-55.9" y="8.7" width="185.8" height="117.6"/>
		</defs>
		<clipPath id="SVGID_00000074401107073145870140000017374735493367048589_">
			<use xlink:href="#SVGID_00000128481278556347950900000007474359396960096915_"  style="overflow:visible;"/>
		</clipPath>
		<g style="clip-path:url(#SVGID_00000074401107073145870140000017374735493367048589_);">
			<defs>
				<rect id="SVGID_00000101791815310831593470000011050334331697268891_" x="-55.9" y="8.7" width="185.8" height="117.6"/>
			</defs>
			<clipPath id="SVGID_00000022525802290921737590000003781028165567181698_">
				<use xlink:href="#SVGID_00000101791815310831593470000011050334331697268891_"  style="overflow:visible;"/>
			</clipPath>
			<g style="clip-path:url(#SVGID_00000022525802290921737590000003781028165567181698_);">
				<defs>
					<rect id="SVGID_00000131356913270971243980000011305603662968727950_" x="-61.7" y="32.4" width="195.8" height="75.7"/>
				</defs>
				<clipPath id="SVGID_00000042011418162745604320000001669848189026532009_">
					<use xlink:href="#SVGID_00000131356913270971243980000011305603662968727950_"  style="overflow:visible;"/>
				</clipPath>
				
					<path style="clip-path:url(#SVGID_00000042011418162745604320000001669848189026532009_);fill-rule:evenodd;clip-rule:evenodd;fill:#1D1D1B;" d="
					M37,69.6c-5.6-0.2-10.7,0.9-14.7,2.7c-1.8,0.8-3.9,2-4.8,2.9c-2,1.8-3.9,6.2-0.7,8.1c5.1,0.7,8.3-1.5,11.6-3.8
					c2.1-1.5,4.4-3.1,5.6-4.5c1-1.2,1.5-3.6,3.8-3.4c2.2,5-0.3,14.4,5.6,16.7c3.4-2.1,4.7-6.2,5.6-10.7c0.8-0.3,1.6-0.3,2.3-0.9
					c1-0.1,0.5,1.3,1.4,1.3c0.9,2.8,2.7,4.7,4.7,6.4c4.7,1.8,9.7-1.1,11.8-4.1c1,0.5,1-0.8,2.3-0.5c2.4,0.5,1.1,7.1,4.1,7.7
					c2.9,0.6,5.4-2.9,8.2-2.7c2.4,0.2,3.7,2.7,5.4,3.9c4.6,2.2,14.8,3.8,21.5,2.3c0.9-0.2,1.7-0.9,2.5-1.1c0.8-0.2,1.6,0,2.5-0.2
					c1-0.2,1.9-1.1,3-1.4c0.9-0.3,1.9-0.2,2.7-0.5c1.7-0.7,4-2.4,4.1-4.3c0.1-2-2.3-4.8-1.4-6.4c0.5-0.9,2.9-1.3,3.9-0.4
					c0.1,1.2-0.3,1.8-0.4,3c-0.1,4,2.2,6.7-1.6,8.4c-2.8,1.2-7.2,1.8-10,3.4c-4,0.6-6.9,1.4-11.5,1.8c-7,0.6-13.8,1.6-19.3-1.8
					c-1.4-0.8-2.6-2.7-3.8-2.9c-1.4-0.2-2.8,1.3-4.7,1.6c-5,0.8-8-1.1-8.2-5.6c-3.2,1.5-7.4,4.2-12.5,3.4c-2.6-0.4-4-2.4-5.7-3.9
					c-2.1,2.9-4,7.2-9.1,7c-5.3-0.2-5.8-7.7-6.1-13.4c-5.9,3.8-11.3,8.9-21,7.9c-1-0.5-1.8-1.2-2.7-1.8c-8.6,2.4-18.7,7.7-29.5,7.9
					c-4.8,0.1-12.2-1.5-11.8-7.2c0.3-4.1,4.3-6.1,6.4-8.6c-5.6,0-14.1,0.2-20.2,1.3c-0.2,9.1,0.5,16.2,0,24.2
					c-0.6,0.6-1.1,1.4-2,1.8c-0.5-0.3-1.2-0.6-2-0.7c0.6-5.9-0.4-12.1,0.5-16.5c-1.5-2,0.1-7-0.7-9.1c-2.1-0.6-5-0.5-7.3-0.9
					c-0.5-0.6-0.7-1.6-0.7-2.7c1.2-2.2,4.9-1.2,7.7-1.1c0.7-11.5-1.5-22.7-3.2-35.1c0.9-0.5,1.3-1.7,2.7-1.6
					c2.8,0.3,2.2,8.1,2.5,11.6c0.3,3.5,1.3,7.5,1.6,11.1c0.4,5.2-0.4,10.5,0.5,14.3c6.5,0.2,13.1,0.6,19.3,0.2
					c2.4-0.2,5.1-0.2,7.3-0.7c3.3-0.8,6.5-3.4,10.2-4.5C-2.1,65.9,3,64.8,10,64.9c1.5,0.6,3.5,1.9,1.3,3.8c-1,0.8-3.7,1.3-5.4,1.8
					c-2,0.6-3.9,0.8-5.9,1.3c-2.6,0.5-6.1,1.6-9.5,2.1c-2.6,0.4-5.5,0.3-7.5,0.9c-2.4,0.7-7.2,4.6-8.2,6.4
					c-3.3,5.6,4.3,8.7,10.9,7.7c9.2-1.4,18-5.4,25.6-7.9c0.3-0.6,0.2-1.5,0.2-2.3c2.5-5.7,9-8.7,16.1-10.6c3.3-0.8,6.8-1.8,9.3-1.6
					c2.8,0.2,6.6,2.5,4.5,5c-0.7,0.5-2.5,0.5-3.2,0C38,70.7,37.4,70.2,37,69.6 M-7.9,70.5c3.3-0.2,6.5-0.6,8.8-1.8
					C-1.9,68.8-6.1,68.9-7.9,70.5"/>
				
					<path style="clip-path:url(#SVGID_00000042011418162745604320000001669848189026532009_);fill-rule:evenodd;clip-rule:evenodd;fill:#FFFFFF;" d="
					M0.8,68.7c-2.3,1.2-5.5,1.6-8.8,1.8C-6.1,68.9-1.9,68.8,0.8,68.7"/>
			</g>
			<g style="clip-path:url(#SVGID_00000022525802290921737590000003781028165567181698_);">
				<defs>
					<rect id="SVGID_00000120526204680274090660000015994906317314045062_" x="-157.9" y="-65.4" width="378.3" height="267.5"/>
				</defs>
				<clipPath id="SVGID_00000044161333950419116190000009901560262470269867_">
					<use xlink:href="#SVGID_00000120526204680274090660000015994906317314045062_"  style="overflow:visible;"/>
				</clipPath>
				
					<path style="clip-path:url(#SVGID_00000044161333950419116190000009901560262470269867_);fill-rule:evenodd;clip-rule:evenodd;fill:#FF0000;" d="
					M27.9,8.7c0,0-24.3,0-24.3,24.3V33c0,0,0,24.3,24.3,24.3H28c0,0,24.3,0,24.3-24.3v-0.1c0,0,0-24.3-24.3-24.3H27.9z"/>
			</g>
			<g style="clip-path:url(#SVGID_00000022525802290921737590000003781028165567181698_);">
				<defs>
					<rect id="SVGID_00000116913793519130213230000017789036925551931031_" x="7" y="9.5" width="55.2" height="47.5"/>
				</defs>
				<clipPath id="SVGID_00000034812067386064100140000013817525371052142503_">
					<use xlink:href="#SVGID_00000116913793519130213230000017789036925551931031_"  style="overflow:visible;"/>
				</clipPath>
				
					<path style="clip-path:url(#SVGID_00000034812067386064100140000013817525371052142503_);fill-rule:evenodd;clip-rule:evenodd;fill:#1D1D1B;" d="
					M25,21.5c-0.5-2.1-1.1-4-0.9-6.6c0.6-1.1,1.5-0.7,2.4-0.8c0.8-0.1,1.8-0.4,2.7-0.6c2.8-0.6,5.9-1,8.5-1.8c0.5-0.2,2-1,2.4,0.1
					c0.4,0.9-0.1,2.9-0.5,3.4c-0.2,0.3-0.8,0.5-1.3,0.9c-0.4,0.3-0.8,0.8-1.2,1.1c-1.6,1-3.7,1.4-5.5,2.4c-0.6,0.3-1.1,1-1.6,1.2
					c-0.5,0.2-0.8,0.1-1.1,0.2c-0.4,0.2-0.9,0.6-1.2,0.8C26.5,22,25.7,21.8,25,21.5"/>
				
					<path style="clip-path:url(#SVGID_00000034812067386064100140000013817525371052142503_);fill-rule:evenodd;clip-rule:evenodd;fill:#1D1D1B;" d="
					M59.6,21.1c-2.5,0.1-5.5,1.1-7.6,2.5c-0.6-0.2-1.1,0.4-1.6,0.5c-1,0.4-2.1,0.7-3.1,1.1c-1,0.4-2.1,1.2-3.2,1.7
					c-0.8,0.4-1.6,0.9-2.3,1.3c-0.3,0.2-0.6,0.6-0.9,0.8c-0.2,0.1-0.5,0.1-0.7,0.2C39,30,37.9,31,36.7,31.7
					c-0.4,0.9-1.3,1.2-1.3,2.7c0.2,0.6,0.7,0.6,1.1,0.8c1.3,0.6,2.6,1.6,3.9,1.8c1.8,1.2,4.3,2.4,6.4,3.4c2,1,4.2,2.4,6.1,3.5
					c0.5,0.3,0.7,0.6,1.2,1c0.4,0.3,0.9,0.3,1.1,0.9c0.1,0.3,0.4,1.2,0.4,1.4c0,1.4-1.1,1.7-1.2,3c-0.3-0.2-0.5,0.1-0.9,0
					c-0.7-1.1-1.3-2.3-2.6-2.5c-0.5-0.9-1.7-1.4-2.5-1.7c-0.8-0.3-1.5-1.1-2.4-1.5c-0.9-0.5-2-0.8-2.9-1.3c-1.5-0.7-2.9-1.4-4.4-2.3
					c-3.3-1.2-6.4-2.6-9.6-3.9c-0.7,0.4-1.5,0.5-1.7,1.5c-1.3,0.1-2,1.4-2.9,2.3c-0.7,0.7-1.5,1.1-2.1,1.9c-0.5,0.7-1.1,1.6-1.9,2
					c-0.8,2-2.7,2.3-3.2,4.9c-0.3,0-0.4,0.2-0.7,0.2c-0.5,1.9-1.9,2.7-2.5,4.5c-2,0.6-2.8-1.6-3.4-3.7c1.1-2,2.8-3.2,3.7-5.4
					c0.9-0.2,1.4-1.4,2.2-2.1c0.4-0.4,0.9-0.9,1.3-1.3c0.1-0.1,0.4-0.1,0.5-0.2c0.2-0.2,0.3-0.7,0.6-0.9c0.5-0.5,1.2-0.7,1.8-1.2
					c0.5-0.4,1.2-0.9,1.6-1.4c0.2-0.2,0.3-0.5,0.4-0.6c0.8-0.6,1.7-0.9,2.4-1.8c-0.7-0.8-1.8-1.1-2.9-1.4c-0.7-0.8-1.6-0.8-2.5-1.1
					c-1.6-0.5-3.3-1.6-5.2-1.8c-1.9-0.2-3.6-0.5-5.3-1.2c-1.2-1.1-1.2-3.4-1.1-6c0.7-1.2,1.5-0.5,2.6-0.1c3.8,1.2,7.2,2.6,11,4.3
					c0.9,0.4,1.8,0.7,2.6,1.1c0.2,0.1,0.4,0.4,0.6,0.5c0.4,0.2,0.9,0.1,1.3,0.3c0.7,0.3,2.2,1.3,3.1,1.3c1.1,0,2-1.5,3.2-1.4
					c1.4-1.2,3.1-1.7,4.8-2.8c1-0.6,2.2-1.3,3.4-1.8c0.3-0.1,0.6-0.5,0.9-0.8c1-0.6,2.3-0.8,3.4-1.4c1.7-0.9,3.3-1.5,5-2.3
					c1.4-0.6,2.8-1.1,4-1.7c1.8-0.8,4-1.4,5.7-2.6c0.6-0.4,1.4,2.3,1.4,3C61.4,21.6,60.2,22.8,59.6,21.1"/>
			</g>
			<g style="clip-path:url(#SVGID_00000022525802290921737590000003781028165567181698_);">
				<defs>
					<rect id="SVGID_00000095330763770073647690000010959404504557435326_" x="7" y="11.8" width="55.2" height="47.5"/>
				</defs>
				<clipPath id="SVGID_00000047054953577678156790000017859345694454657459_">
					<use xlink:href="#SVGID_00000095330763770073647690000010959404504557435326_"  style="overflow:visible;"/>
				</clipPath>
				
					<path style="clip-path:url(#SVGID_00000047054953577678156790000017859345694454657459_);fill-rule:evenodd;clip-rule:evenodd;fill:#FFFFFF;" d="
					M25,23.7c-0.5-2.1-1.1-4-0.9-6.6c0.6-1.1,1.5-0.7,2.4-0.8c0.8-0.1,1.8-0.4,2.7-0.6c2.8-0.6,5.9-1,8.5-1.8c0.5-0.2,2-1,2.4,0.1
					c0.4,0.9-0.1,2.9-0.5,3.4c-0.2,0.3-0.8,0.5-1.3,0.9c-0.4,0.3-0.8,0.8-1.2,1.1c-1.6,1-3.7,1.4-5.5,2.4c-0.6,0.3-1.1,1-1.6,1.2
					c-0.5,0.2-0.8,0.1-1.1,0.2c-0.4,0.2-0.9,0.6-1.2,0.8C26.5,24.2,25.7,24,25,23.7"/>
				
					<path style="clip-path:url(#SVGID_00000047054953577678156790000017859345694454657459_);fill-rule:evenodd;clip-rule:evenodd;fill:#FFFFFF;" d="
					M59.6,23.4c-2.5,0.1-5.5,1.1-7.6,2.5c-0.6-0.2-1.1,0.4-1.6,0.5c-1,0.4-2.1,0.7-3.1,1.1c-1,0.4-2.1,1.2-3.2,1.7
					c-0.8,0.4-1.6,0.9-2.3,1.3c-0.3,0.2-0.6,0.6-0.9,0.8c-0.2,0.1-0.5,0.1-0.7,0.2c-1.2,0.8-2.3,1.8-3.5,2.5
					c-0.4,0.9-1.3,1.2-1.3,2.7c0.2,0.6,0.7,0.6,1.1,0.8c1.3,0.6,2.6,1.6,3.9,1.8c1.8,1.2,4.3,2.4,6.4,3.4c2,1,4.2,2.4,6.1,3.5
					c0.5,0.3,0.7,0.6,1.2,1c0.4,0.3,0.9,0.3,1.1,0.9c0.1,0.3,0.4,1.2,0.4,1.4c0,1.4-1.1,1.7-1.2,3c-0.3-0.2-0.5,0.1-0.9,0
					c-0.7-1.1-1.3-2.3-2.6-2.5c-0.5-0.9-1.7-1.4-2.5-1.7c-0.8-0.3-1.5-1.1-2.4-1.5c-0.9-0.5-2-0.8-2.9-1.3c-1.5-0.7-2.9-1.4-4.4-2.3
					c-3.3-1.2-6.4-2.6-9.6-3.9c-0.7,0.4-1.5,0.5-1.7,1.5c-1.3,0.1-2,1.4-2.9,2.3c-0.7,0.7-1.5,1.1-2.1,1.9c-0.5,0.7-1.1,1.6-1.9,2
					c-0.8,2-2.7,2.3-3.2,4.9c-0.3,0-0.4,0.2-0.7,0.2c-0.5,1.9-1.9,2.7-2.5,4.5c-2,0.6-2.8-1.6-3.4-3.7c1.1-2,2.8-3.2,3.7-5.4
					c0.9-0.2,1.4-1.4,2.2-2.1c0.4-0.4,0.9-0.9,1.3-1.3c0.1-0.1,0.4-0.1,0.5-0.2c0.2-0.2,0.3-0.7,0.6-0.9c0.5-0.5,1.2-0.7,1.8-1.2
					c0.5-0.4,1.2-0.9,1.6-1.4c0.2-0.2,0.3-0.5,0.4-0.6c0.8-0.6,1.7-0.9,2.4-1.8c-0.7-0.8-1.8-1.1-2.9-1.4c-0.7-0.8-1.6-0.8-2.5-1.1
					c-1.6-0.5-3.3-1.6-5.2-1.8c-1.9-0.2-3.6-0.5-5.3-1.2c-1.2-1.1-1.2-3.4-1.1-6c0.7-1.2,1.5-0.5,2.6-0.1c3.8,1.2,7.2,2.6,11,4.3
					c0.9,0.4,1.8,0.7,2.6,1.1c0.2,0.1,0.4,0.4,0.6,0.5c0.4,0.2,0.9,0.1,1.3,0.3c0.7,0.3,2.2,1.3,3.1,1.3c1.1,0,2-1.5,3.2-1.4
					c1.4-1.2,3.1-1.7,4.8-2.8c1-0.6,2.2-1.3,3.4-1.8c0.3-0.1,0.6-0.5,0.9-0.8c1-0.6,2.3-0.8,3.4-1.4c1.7-0.9,3.3-1.5,5-2.3
					c1.4-0.6,2.8-1.1,4-1.7c1.8-0.8,4-1.4,5.7-2.6c0.6-0.4,1.4,2.3,1.4,3C61.4,23.9,60.2,25,59.6,23.4"/>
			</g>
			<g style="clip-path:url(#SVGID_00000022525802290921737590000003781028165567181698_);">
				<defs>
					<rect id="SVGID_00000002360340548141161720000012000777131381555097_" x="-157.9" y="-65.4" width="378.3" height="267.5"/>
				</defs>
				<clipPath id="SVGID_00000121976839504872230280000011353956022251400368_">
					<use xlink:href="#SVGID_00000002360340548141161720000012000777131381555097_"  style="overflow:visible;"/>
				</clipPath>
				<path style="clip-path:url(#SVGID_00000121976839504872230280000011353956022251400368_);fill:#1D1D1B;" d="M-15.3,112.5
					l-0.3,0.1c-0.4-0.4-0.9-0.6-1.4-0.6c-1.3,0-1.5,0.6-1.5,3v1.8l2.7-0.1l-0.1,1.1h-2.6v5.9c0,0.6,0,1,0.1,1.2
					c0.1,0.2,0.3,0.3,0.7,0.3l1,0.1v0.6c-0.8,0-1.6-0.1-2.6-0.1c-1,0-1.9,0-2.6,0.1v-0.6l1-0.1c0.4,0,0.6-0.1,0.7-0.3
					c0.1-0.2,0.1-0.6,0.1-1.2v-5.9l-1.4,0.1v-0.5l1.4-0.6v-0.9c0-1.4,0.3-2.3,0.9-3l1.2-1.4c0.5-0.6,1.3-0.9,1.9-0.9
					c0.3,0,0.6,0.1,0.9,0.2V112.5z"/>
				<path style="clip-path:url(#SVGID_00000121976839504872230280000011353956022251400368_);fill:#1D1D1B;" d="M-5.1,119.8
					c0,0.3,0,0.6,0,0.9c-1.3,0.2-2.5,0.3-3.8,0.3h-3.1c0,2.4,1.2,4.1,3.8,4.1c1,0,1.8-0.5,2.6-1l0.3,0.2l-0.4,0.7
					c-0.1,0.3-1.9,1.2-3.3,1.2c-3.2,0-4.8-2-4.8-4.8c0-2,0.5-3.2,1.5-4c0.4-0.3,0.8-0.6,1.3-0.8c0.7-0.3,1.3-0.6,2-0.6
					C-6.8,116-5.1,117.5-5.1,119.8 M-11.9,120.2c1.7,0.2,3.5,0.1,5,0.1c0-1.9-0.7-3.5-2.2-3.5C-10.8,116.7-12,117.9-11.9,120.2"/>
				<path style="clip-path:url(#SVGID_00000121976839504872230280000011353956022251400368_);fill:#1D1D1B;" d="M-1.9,122.8v0.9
					c0,1.3,1.5,1.8,2.7,1.8c1.3,0,2.4-0.8,2.4-1.9c0-0.7-0.4-1.2-1-1.4c-0.9-0.2-2.1-0.5-3.1-0.8c-1-0.4-1.8-1-1.8-2.3
					c0-2.3,2-3.1,3.9-3.1c1,0,1.9,0.2,2.7,0.5c-0.1,0.8-0.1,1.5-0.1,2.4H3.3v-0.5c0-1.1-1.2-1.7-2.4-1.7c-1.8,0-2,1-2,1.7
					c0,0.9,0.7,1.4,2.3,1.6c2.5,0.4,3.7,1,3.7,2.7c0,2.3-2.3,3.5-4.6,3.5c-1,0-1.9-0.1-2.9-0.5c0.2-0.9,0.2-1.9,0.2-2.9H-1.9z"/>
				<path style="clip-path:url(#SVGID_00000121976839504872230280000011353956022251400368_);fill:#1D1D1B;" d="M7,117.9v-0.4
					l1.6-0.7v-1.5c0-0.5,0-1.1-0.1-1.7c0.8-0.2,1.4-0.6,1.8-0.8l0.3,0.2c-0.1,0.9-0.2,2.1-0.2,3v0.8l2.9-0.1l-0.2,1.1h-2.7v5.5
					c0,1,0.3,1.4,1.1,1.4c0.5,0,0.9-0.2,1.2-0.4l0.3,0.4l-1,1.1c-0.2,0.2-0.9,0.3-1.4,0.3c-1.1,0-2-0.5-2-2.2v-6L7,117.9z"/>
				<path style="clip-path:url(#SVGID_00000121976839504872230280000011353956022251400368_);fill:#1D1D1B;" d="M16.5,112.9
					c0-0.5-0.1-0.9-0.5-0.9h-1.2v-0.6c1.1-0.2,2.2-0.4,3.3-0.8l0.2,0.2v12.9c0,0.6,0,1,0.1,1.2c0.1,0.2,0.3,0.3,0.7,0.3l1,0.1v0.6
					c-0.8,0-1.6-0.1-2.6-0.1c-1,0-1.9,0-2.6,0.1v-0.6l1-0.1c0.4,0,0.6-0.1,0.7-0.3c0.1-0.2,0.1-0.6,0.1-1.2V112.9z"/>
				<path style="clip-path:url(#SVGID_00000121976839504872230280000011353956022251400368_);fill:#1D1D1B;" d="M25.4,123.7
					c0,0.6,0,1,0.1,1.2c0.1,0.2,0.3,0.3,0.7,0.3l1,0.1v0.6c-0.8,0-1.6-0.1-2.6-0.1c-1,0-1.9,0-2.6,0.1v-0.6l1-0.1
					c0.4,0,0.6-0.1,0.7-0.3c0.1-0.2,0.1-0.6,0.1-1.2V119c0-0.7,0-1.1-0.1-1.3c-0.1-0.2-0.3-0.2-0.8-0.2h-0.8v-0.6
					c1.2-0.1,2.5-0.5,3.3-0.9l0.2,0.1V123.7z M25.6,112.6c0,0.6-0.6,1.1-1.2,1.1c-0.6,0-1.1-0.5-1.1-1.1c0-0.6,0.5-1.2,1.1-1.2
					C25,111.5,25.6,112,25.6,112.6"/>
				<path style="clip-path:url(#SVGID_00000121976839504872230280000011353956022251400368_);fill:#1D1D1B;" d="M36.3,119.3
					l-0.1-1.3c-0.2-0.5-1.4-0.9-2.2-0.9c-1.4,0-3.1,0.7-3.1,3.4c0,3.3,1.9,4.6,3.9,4.6c0.7,0,1.5-0.3,2.1-0.6l0.2,0.3l-0.4,0.7
					c-0.1,0.2-1.4,0.7-2.9,0.7c-2.5,0-4.7-1.7-4.7-4.8c0-1.9,0.9-3.3,1.8-3.9c0.5-0.4,1.2-0.8,1.8-1c0.6-0.3,1.3-0.5,2-0.5
					c1.2,0,2,0.4,2.5,0.7c-0.2,0.6-0.3,1.7-0.3,2.6H36.3z"/>
				<path style="clip-path:url(#SVGID_00000121976839504872230280000011353956022251400368_);fill:#1D1D1B;" d="M40.7,112.9
					c0-0.5-0.1-0.9-0.5-0.9H39v-0.6c1.1-0.2,2.2-0.4,3.3-0.8l0.2,0.2v7.1h0l1.5-1.3c0.5-0.4,0.9-0.5,1.7-0.5c2.4,0,3.4,1.4,3.4,3.6
					v4c0,0.6,0,1,0.1,1.2c0.1,0.2,0.3,0.3,0.7,0.3l0.9,0.1v0.6c-0.5,0-1.1-0.1-1.7-0.1c-0.6,0-1.2,0-1.7,0.1V120
					c0-1.7-1-2.7-2.4-2.7c-1.3,0-2.6,1.1-2.6,2v4.4c0,0.6,0,1,0.1,1.2c0.1,0.2,0.3,0.3,0.7,0.3l0.9,0.1v0.6c-0.7,0-1.6-0.1-2.6-0.1
					s-1.9,0-2.6,0.1v-0.6l0.9-0.1c0.4,0,0.6-0.1,0.7-0.3c0.1-0.2,0.1-0.6,0.1-1.2V112.9z"/>
				<path style="clip-path:url(#SVGID_00000121976839504872230280000011353956022251400368_);fill:#1D1D1B;" d="M53.5,124.7
					c0-0.6,0.6-1.2,1.2-1.2c0.6,0,1.2,0.6,1.2,1.2c0,0.6-0.6,1.2-1.2,1.2C54,125.9,53.5,125.3,53.5,124.7"/>
				<path style="clip-path:url(#SVGID_00000121976839504872230280000011353956022251400368_);fill:#1D1D1B;" d="M66.9,112.9
					c0-0.5-0.1-0.9-0.5-0.9h-1.2v-0.6c1.1-0.2,2.2-0.4,3.3-0.8l0.2,0.2v12.9c0,0.6,0,1,0.1,1.2c0.1,0.2,0.3,0.3,0.7,0.3l1,0.1v0.6
					c-0.9,0-1.4-0.1-1.9-0.1c-0.5,0-1.1,0-1.6,0.1L67,124l-2.3,1.9c-0.2,0.1-0.8,0.2-1.3,0.2c-2.9,0-4.3-2.1-4.3-4.8
					c0-1.9,0.9-3.3,2-3.9l1.8-1c0.6-0.3,1.2-0.4,1.5-0.4c0.9,0,1.6,0.3,2.5,0.7V112.9z M66.9,118.5c0-0.4-1.7-1.5-2.9-1.5
					c-2.1,0.1-3.1,1.3-3.1,3.8c0,1.9,1.1,4.1,3.3,4.1c0.9,0,1.7-0.6,2.3-1.3c0.6-0.7,0.5-1.4,0.5-2.4V118.5z"/>
				<path style="clip-path:url(#SVGID_00000121976839504872230280000011353956022251400368_);fill:#1D1D1B;" d="M81.5,119.8
					c0,0.3,0,0.6,0,0.9c-1.3,0.2-2.5,0.3-3.8,0.3h-3c0,2.4,1.2,4.1,3.8,4.1c1,0,1.8-0.5,2.6-1l0.3,0.2l-0.4,0.7
					c-0.1,0.3-1.9,1.2-3.3,1.2c-3.2,0-4.8-2-4.8-4.8c0-2,0.5-3.2,1.5-4c0.4-0.3,0.8-0.6,1.3-0.8c0.7-0.3,1.3-0.6,2-0.6
					C79.8,116,81.5,117.5,81.5,119.8 M74.6,120.2c1.7,0.2,3.5,0.1,5,0.1c0-1.9-0.7-3.5-2.2-3.5C75.8,116.7,74.5,117.9,74.6,120.2"/>
			</g>
		</g>
	</g>
</g>
</svg>
